# xmcd
#
# Track frame offsets: 
#        150
#        17448
#        31319
#        46241
#        60930
#        78092
#        93444
#        109814
#        129664
#        145745
#        161692
#        183246
#        197274
#        214029
#        229929
#        242315
#
# Disc length: 3359 seconds
#
# Revision: 5
# Processed by: cddbd v1.5.2PL0 Copyright (c) Steve Scherf et al.
# Submitted via: ExactAudioCopyFreeDBPlugin 1.0
#
DISCID=be0d1d10
DTITLE=Various Artist - 25 Jahre Gold Hits [CD2v2)
DYEAR=2001
DGENRE=Schlager
TTITLE0=Wolfgang Petry - Auf den Mond schießen
TTITLE1=Geier Sturzflug - Bruttosozialprodukt
TTITLE2=Ireen Sheer - Xanadu
TTITLE3=Spider Murphy Gang - Wo bist du?
TTITLE4=Henry Valentino - Im Wagen vor mir
TTITLE5=Lena Valaitis - Gib mich frei
TTITLE6=Klaus and Klaus - An der Nordseeküste
TTITLE7=Rudi Carell - Wann wird's mal wieder richtig Sommer
TTITLE8=Zillertaler Schürzenjäger - Sierra Madre
TTITLE9=Katja Ebstein - Wunder gibt es immer wieder
TTITLE10=Jonny Hill - Ruf Teddybär Eins-Vier
TTITLE11=Costa Cordalis - Anita
TTITLE12=Palast Orchester - Kein Schwein ruft mich an
TTITLE13=Andy Borg - Adios Amor
TTITLE14=Conny Froboess - Zwei kleine Italiener
TTITLE15=Tom Astor - Adios Amigos
EXTD=YEAR: 2001
EXTT0=
EXTT1=
EXTT2=
EXTT3=
EXTT4=
EXTT5=
EXTT6=
EXTT7=
EXTT8=
EXTT9=
EXTT10=
EXTT11=
EXTT12=
EXTT13=
EXTT14=
EXTT15=
PLAYORDER=
